<svg width="73" height="66" viewBox="0 0 73 66" fill="none" xmlns="http://www.w3.org/2000/svg">
<path d="M60.6829 18.8529C60.0458 18.2193 59.7273 17.435 59.7273 16.5V13.2H56.4091C55.4689 13.2 54.6814 12.8832 54.0465 12.2496C53.4117 11.616 53.0931 10.8328 53.0909 9.90001C53.0887 8.96721 53.4072 8.18401 54.0465 7.55041C54.6858 6.91681 55.4734 6.60001 56.4091 6.60001H59.7273V3.30001C59.7273 2.36501 60.0458 1.58181 60.6829 0.950411C61.32 0.319011 62.1075 0.00221138 63.0454 1.13793e-05C63.9834 -0.00218862 64.772 0.314611 65.4113 0.950411C66.0506 1.58621 66.368 2.36941 66.3636 3.30001V6.60001H69.6818C70.622 6.60001 71.4106 6.91681 72.0477 7.55041C72.6848 8.18401 73.0022 8.96721 73 9.90001C72.9978 10.8328 72.6792 11.6171 72.0444 12.2529C71.4095 12.8887 70.622 13.2044 69.6818 13.2H66.3636V16.5C66.3636 17.435 66.0451 18.2193 65.408 18.8529C64.7709 19.4865 63.9834 19.8022 63.0454 19.8C62.1075 19.7978 61.32 19.4843 60.6829 18.8529ZM33.1818 54.45C37.3295 54.45 40.8557 53.0068 43.7602 50.1204C46.6647 47.234 48.1158 43.7272 48.1136 39.6C48.1114 35.4728 46.6603 31.9671 43.7602 29.0829C40.8601 26.1987 37.334 24.7544 33.1818 24.75C29.0297 24.7456 25.5046 26.1899 22.6068 29.0829C19.7089 31.9759 18.2566 35.4816 18.25 39.6C18.2434 43.7184 19.6956 47.2252 22.6068 50.1204C25.5179 53.0156 29.0429 54.4588 33.1818 54.45ZM33.1818 47.85C30.8591 47.85 28.8958 47.0525 27.292 45.4575C25.6883 43.8625 24.8864 41.91 24.8864 39.6C24.8864 37.29 25.6883 35.3375 27.292 33.7425C28.8958 32.1475 30.8591 31.35 33.1818 31.35C35.5045 31.35 37.4678 32.1475 39.0716 33.7425C40.6754 35.3375 41.4773 37.29 41.4773 39.6C41.4773 41.91 40.6754 43.8625 39.0716 45.4575C37.4678 47.0525 35.5045 47.85 33.1818 47.85ZM6.63636 66C4.81136 66 3.24961 65.3543 1.95109 64.0629C0.652576 62.7715 0.00221212 61.2172 0 59.4V19.8C0 17.985 0.650364 16.4318 1.95109 15.1404C3.25182 13.849 4.81357 13.2022 6.63636 13.2H17.0886L21.2364 8.74501C21.8447 8.08501 22.578 7.56251 23.4363 7.17751C24.2946 6.79251 25.1927 6.60001 26.1307 6.60001H43.1364C44.0765 6.60001 44.8651 6.91681 45.5022 7.55041C46.1393 8.18401 46.4567 8.96721 46.4545 9.90001V14.85C46.4545 16.225 46.939 17.3943 47.9079 18.3579C48.8768 19.3215 50.0514 19.8022 51.4318 19.8H53.0909V21.45C53.0909 22.825 53.5754 23.9943 54.5443 24.9579C55.5132 25.9215 56.6878 26.4022 58.0682 26.4H63.0454C63.9856 26.4 64.7742 26.7168 65.4113 27.3504C66.0484 27.984 66.3658 28.7672 66.3636 29.7V59.4C66.3636 61.215 65.7144 62.7693 64.4159 64.0629C63.1173 65.3565 61.5545 66.0022 59.7273 66H6.63636Z" fill="white" fill-opacity="0.85"/>
</svg>
