<svg width="348" height="69" viewBox="0 0 348 69" fill="none" xmlns="http://www.w3.org/2000/svg">
<path d="M36.1819 24.4167H27.0681C25.9574 24.4167 25.4025 24.4167 24.954 24.573C24.5314 24.7231 24.1489 24.9686 23.8363 25.2903C23.5237 25.6121 23.2894 26.0014 23.1514 26.4283C23 26.8902 23 27.4614 23 28.6047V42.0252C23 42.8474 23.944 43.2844 24.541 42.7382C24.7085 42.5834 24.9282 42.4974 25.1562 42.4974C25.3843 42.4974 25.604 42.5834 25.7715 42.7382L26.2344 43.1617C26.5278 43.4331 26.9128 43.5838 27.3125 43.5838C27.7122 43.5838 28.0972 43.4331 28.3906 43.1617C28.6841 42.8904 29.0691 42.7397 29.4687 42.7397C29.8684 42.7397 30.2534 42.8904 30.5469 43.1617C30.8403 43.4331 31.2253 43.5838 31.625 43.5838C32.0247 43.5838 32.4097 43.4331 32.7031 43.1617C32.9966 42.8904 33.3816 42.7397 33.7812 42.7397C34.1809 42.7397 34.5659 42.8904 34.8594 43.1617C35.1528 43.4331 35.5378 43.5838 35.9375 43.5838C36.3372 43.5838 36.7222 43.4331 37.0156 43.1617L37.4785 42.7382C37.646 42.5834 37.8657 42.4974 38.0937 42.4974C38.3218 42.4974 38.5415 42.5834 38.709 42.7382C39.306 43.2844 40.25 42.8474 40.25 42.0252V28.6047C40.25 27.4614 40.25 26.8892 40.0986 26.4292C39.9608 26.0022 39.7265 25.6127 39.4139 25.2908C39.1013 24.9689 38.7188 24.7232 38.296 24.573C37.8475 24.4167 37.2926 24.4167 36.1819 24.4167Z" stroke="#004552" stroke-width="1.5"/>
<path d="M29.2291 32.4667L30.5986 34.0001L34.0208 30.1667" stroke="#004552" stroke-width="1.5" stroke-linecap="round" stroke-linejoin="round"/>
<path d="M27.3125 37.3542H35.9375" stroke="#004552" stroke-width="1.5" stroke-linecap="round"/>
<path d="M112.716 26.3518H91.7074C91.5333 26.3518 91.3663 26.4205 91.2432 26.5429C91.1201 26.6653 91.0509 26.8312 91.0509 27.0043V42.6636C91.0509 42.8367 91.1201 43.0026 91.2432 43.125C91.3663 43.2473 91.5333 43.3161 91.7074 43.3161H112.716C112.89 43.3161 113.057 43.2473 113.18 43.125C113.303 43.0026 113.372 42.8367 113.372 42.6636V27.0043C113.372 26.8312 113.303 26.6653 113.18 26.5429C113.057 26.4205 112.89 26.3518 112.716 26.3518ZM97.616 36.7914V32.8765H106.807V36.7914H97.616ZM92.3639 36.7914V32.8765H96.303V36.7914H92.3639ZM108.12 32.8765H112.059V36.7914H108.12V32.8765ZM112.059 31.5716H102.868V27.6568H112.059V31.5716ZM101.555 27.6568V31.5716H92.3639V27.6568H101.555ZM92.3639 38.0963H101.555V42.0111H92.3639V38.0963ZM102.868 42.0111V38.0963H112.059V42.0111H102.868Z" fill="#004552"/>
<path d="M166.171 44.958C165.519 44.958 164.963 44.7286 164.504 44.2697C164.044 43.8108 163.814 43.2547 163.814 42.6013V31.7557L159.888 34.6797C159.716 34.7915 159.539 34.8386 159.356 34.8211C159.172 34.8036 159.015 34.7088 158.885 34.5368C158.754 34.3647 158.698 34.1872 158.719 34.0045C158.739 33.8207 158.836 33.6632 159.008 33.532L171.592 24.1243C171.803 23.9668 172.028 23.8535 172.267 23.7845C172.506 23.7154 172.755 23.6804 173.013 23.6795C173.272 23.6785 173.521 23.7135 173.762 23.7845C174.002 23.8554 174.226 23.9682 174.435 24.1228L179.351 27.7832V25.9165C179.351 25.5325 179.485 25.2073 179.751 24.9409C180.017 24.6745 180.342 24.5413 180.725 24.5413C181.108 24.5413 181.433 24.6745 181.701 24.9409C181.968 25.2073 182.101 25.532 182.1 25.9151V29.8468L187.047 33.5334C187.213 33.6637 187.308 33.8207 187.331 34.0045C187.355 34.1882 187.301 34.3656 187.171 34.5368C187.041 34.7079 186.884 34.8027 186.7 34.8211C186.516 34.8396 186.338 34.7924 186.166 34.6797L182.24 31.7543V42.6028C182.24 43.2542 182.011 43.8098 181.552 44.2697C181.093 44.7286 180.537 44.958 179.885 44.958H177.164C176.511 44.958 175.956 44.7286 175.497 44.2697C175.038 43.8108 174.809 43.2547 174.809 42.6013V38.2263C174.809 37.9648 174.725 37.7499 174.556 37.5818C174.388 37.4136 174.173 37.3295 173.912 37.3295H172.117C171.854 37.3295 171.639 37.4136 171.471 37.5818C171.302 37.7499 171.218 37.9648 171.218 38.2263V42.6013C171.218 43.2547 170.989 43.8108 170.53 44.2697C170.071 44.7286 169.515 44.958 168.863 44.958H166.171ZM166.171 43.4997H168.863C169.125 43.4997 169.339 43.4156 169.508 43.2474C169.676 43.0792 169.76 42.8643 169.76 42.6028V38.2278C169.76 37.5754 169.989 37.0193 170.448 36.5595C170.908 36.1006 171.464 35.8711 172.117 35.8711H173.91C174.564 35.8711 175.12 36.1006 175.579 36.5595C176.038 37.0193 176.267 37.5754 176.267 38.2278V42.6028C176.267 42.8643 176.351 43.0792 176.519 43.2474C176.687 43.4156 176.902 43.4997 177.164 43.4997H179.885C180.147 43.4997 180.361 43.4156 180.53 43.2474C180.698 43.0792 180.782 42.8643 180.782 42.6028V30.6809L173.546 25.307C173.398 25.1952 173.221 25.1393 173.013 25.1393C172.806 25.1393 172.629 25.1952 172.481 25.307L165.273 30.6809V42.6028C165.273 42.8643 165.357 43.0792 165.526 43.2474C165.695 43.4156 165.909 43.4997 166.171 43.4997ZM170.377 31.8418H175.65C175.65 31.1573 175.387 30.5939 174.86 30.1515C174.332 29.7092 173.716 29.488 173.013 29.488C172.311 29.488 171.696 29.7092 171.169 30.1515C170.642 30.5939 170.378 31.1573 170.377 31.8418ZM169.508 43.2474C169.676 43.0792 169.76 42.8643 169.76 42.6028V38.2278C169.76 37.5754 169.989 37.0193 170.448 36.5595C170.908 36.1006 171.464 35.8711 172.117 35.8711H173.91C174.564 35.8711 175.12 36.1006 175.579 36.5595C175.12 36.0996 174.564 35.8702 173.912 35.8711H172.117C171.464 35.8711 170.908 36.1006 170.448 36.5595C169.989 37.0193 169.76 37.5754 169.76 38.2278V42.6028C169.76 42.8643 169.676 43.0792 169.508 43.2474Z" fill="#004552"/>
<path d="M240.375 22V25.75M247.875 22V25.75M244.125 42V47M244.993 30.125L242.379 32.8438C242.099 33.135 242.299 33.5538 242.756 33.6313L245.494 34.0963C245.981 34.1788 246.166 34.6437 245.826 34.9262L242.584 37.625" stroke="#004552" stroke-width="1.5" stroke-linecap="round" stroke-linejoin="round"/>
<path d="M247.009 25.75H241.241C238.569 25.75 237.232 25.75 236.494 26.6225C235.756 27.4937 235.959 28.8325 236.365 31.51L237.02 35.8225C237.67 40.105 239.482 42 244.125 42C248.767 42 250.58 40.105 251.23 35.8225L251.885 31.51C252.291 28.8325 252.494 27.4937 251.756 26.6225C251.019 25.7512 249.681 25.75 247.009 25.75Z" stroke="#004552" stroke-width="1.5"/>
<path d="M317.805 37.0874C321.295 37.0874 324.125 34.2693 324.125 30.7932C324.125 27.3171 321.295 24.5 317.805 24.5C314.315 24.5 311.488 27.3181 311.488 30.7932C311.488 32.4032 312.222 33.5743 312.222 33.5743L304.579 41.1845C304.236 41.5265 303.756 42.4146 304.579 43.2346L305.461 44.1126C305.804 44.4056 306.667 44.8156 307.372 44.1126L308.402 43.0886C309.43 44.1126 310.606 43.5276 311.047 42.9416C311.781 41.9175 310.9 40.8925 310.9 40.8925L311.194 40.5995C312.604 42.0056 313.839 41.1855 314.28 40.5995C315.015 39.5755 314.28 38.5504 314.28 38.5504C313.986 37.9654 313.398 37.9654 314.133 37.2334L315.015 36.3554C315.72 36.9404 317.17 37.0874 317.807 37.0874H317.805Z" stroke="#004552" stroke-width="1.5" stroke-linejoin="round"/>
<path d="M320.01 30.794C320.009 31.3773 319.776 31.9362 319.363 32.3478C318.949 32.7595 318.389 32.9901 317.806 32.989C317.223 32.9901 316.663 32.7595 316.249 32.3478C315.836 31.9362 315.603 31.3773 315.602 30.794C315.602 30.5051 315.66 30.2191 315.771 29.9523C315.882 29.6856 316.044 29.4434 316.249 29.2395C316.454 29.0355 316.697 28.8739 316.964 28.7638C317.231 28.6538 317.517 28.5974 317.806 28.5979C318.095 28.5974 318.381 28.6538 318.648 28.7638C318.915 28.8739 319.158 29.0355 319.363 29.2395C319.568 29.4434 319.73 29.6856 319.841 29.9523C319.952 30.2191 320.01 30.5051 320.01 30.794Z" stroke="#004552" stroke-width="1.5"/>
<path d="M321 0C335.912 5.02523e-06 348 12.0883 348 27V42C348 56.9117 335.912 69 321 69H27C12.0883 69 0 56.9117 0 42V27C9.66449e-07 12.0883 12.0883 0 27 0H321ZM315 14C305.487 14 297.453 20.3257 294.871 29H265.129C262.547 20.3257 254.513 14 245 14C235.487 14 227.453 20.3257 224.871 29H194.129C191.547 20.3257 183.513 14 174 14C164.487 14 156.453 20.3257 153.871 29H123.129C120.547 20.3257 112.513 14 103 14C93.4871 14 85.4529 20.3257 82.8711 29H53.1289C50.5471 20.3257 42.5129 14 33 14C21.402 14 12 23.402 12 35C12 46.598 21.402 56 33 56C42.5129 56 50.5471 49.6743 53.1289 41H82.8711C85.4529 49.6743 93.4871 56 103 56C112.513 56 120.547 49.6743 123.129 41H153.871C156.453 49.6743 164.487 56 174 56C183.513 56 191.547 49.6743 194.129 41H224.871C227.453 49.6743 235.487 56 245 56C254.513 56 262.547 49.6743 265.129 41H294.871C297.453 49.6743 305.487 56 315 56C326.598 56 336 46.598 336 35C336 23.402 326.598 14 315 14Z" fill="#004552"/>
</svg>
